<?xml version="1.0" encoding="UTF-8"?>
<svg width="312px" height="119px" viewBox="0 0 312 119" version="1.1" xmlns="http://www.w3.org/2000/svg" xmlns:xlink="http://www.w3.org/1999/xlink">
    <!-- Generator: Sketch 42 (36781) - http://www.bohemiancoding.com/sketch -->
    <title>LogoWithNameLight</title>
    <desc>Created with Sketch.</desc>
    <defs></defs>
    <g id="Logo" stroke="none" stroke-width="1" fill="none" fill-rule="evenodd">
        <g id="Logo-with-name-(light)" transform="translate(-44.000000, -66.000000)">
            <g id="Labs" transform="translate(46.000000, 89.000000)" fill="#565658">
                <path d="M60.6068642,71.1588333 L73.0994694,71.1588334 L73.0994691,50.0666502 C73.0994691,50.0666502 73.9323095,39.7123059 66.8531658,32.0424213 C59.7740222,24.3725366 48.5306758,20.9210892 36.8709104,25.5230197 C25.211145,30.1249501 21.15138,40.3908684 21.4633628,47.3821909 C21.7753456,54.3735134 23.5454643,58.1200295 26.8768256,61.9549718 C30.2081869,65.7899141 35.2052295,69.2413621 41.0351129,70.391845 C49.0344749,71.9704578 58.1083429,68.4743737 58.1083429,68.4743737 L58.1083417,54.2850871 C58.1083417,54.2850871 56.8590839,55.819064 52.2784599,58.1200294 C47.697836,60.4209948 42.2843732,58.8870178 38.9530115,56.5860524 C35.6216497,54.285087 31.8738678,48.9161678 34.7888097,42.3967659 C37.7037515,35.877364 46.4485753,33.1929042 53.5277193,36.6443524 C56.3230312,38.0072112 59.7740238,40.8627888 60.190444,44.6977312 C60.6068642,48.5326735 60.606863,54.2850871 60.606863,54.2850871 L60.6068642,71.1588333 Z" id="A"></path>
                <path d="M191.204925,38.1744765 L178.677058,38.1744765 C178.677058,38.1744765 174.870641,34.6775424 167.445176,34.6872687 C160.01971,34.6969951 155.7813,36.2371388 155.7813,38.561944 C155.7813,40.8867491 164.421209,41.2742167 164.421209,41.2742167 C164.421209,41.2742167 164.421208,52.8982424 164.421209,52.8982424 C159.669259,53.2857099 151.893342,51.3483723 148.869374,49.0235671 C147.080787,47.6485146 143.426254,44.6065174 142.389442,40.8867491 C141.352631,37.1669809 142.705559,34.0327934 144.117424,31.9749961 C145.775385,29.5585122 148.437379,26.9379183 153.189328,25.3880482 C157.941277,23.8381781 163.557217,23.4507105 168.741163,23.4507105 C184.724993,23.4507105 192.068916,33.5248662 191.204925,38.1744765 Z M142.025594,56.4350675 L154.553461,56.4350675 C154.553461,56.4350675 158.359877,59.9320016 165.785343,59.9222752 C173.210808,59.9125488 177.449218,58.3724051 177.449218,56.0476 C177.449218,53.7227948 168.80931,53.3353273 168.80931,53.3353273 C168.80931,53.3353273 168.80931,41.7113016 168.80931,41.7113016 C173.56126,41.3238341 181.337177,43.2611717 184.361145,45.5859768 C186.149731,46.9610294 189.804265,50.0030266 190.841076,53.7227948 C191.877888,57.4425631 190.524959,60.5767506 189.113095,62.6345479 C187.455133,65.0510318 184.79314,67.6716257 180.041191,69.2214958 C175.289242,70.7713659 169.673302,71.1588334 164.489356,71.1588334 C148.505525,71.1588334 141.161603,61.0846778 142.025594,56.4350675 Z" id="S"></path>
                <polygon id="I" points="0 70.9896868 0 7.10542736e-15 12.7657815 7.10542736e-15 12.7657815 70.9896868"></polygon>
                <path d="M94.224949,71.3713517 L81.7323438,71.3713518 L81.7323441,50.2791686 C81.7323441,50.2791686 80.8995037,39.9248243 87.9786473,32.2549397 C95.057791,24.585055 106.301137,21.1336076 117.960903,25.7355381 C129.620668,30.3374685 133.680433,40.6033868 133.36845,47.5947093 C133.056468,54.5860318 131.286349,58.3325479 127.954988,62.1674902 C124.623626,66.0024325 119.626584,69.4538805 113.7967,70.6043633 C105.797338,72.1829762 96.7234702,68.6868921 96.7234702,68.6868921 L96.7234715,54.4976055 C96.7234715,54.4976055 97.9727293,56.0315824 102.553353,58.3325478 C107.133977,60.6335132 112.54744,59.0995362 115.878802,56.7985708 C119.210163,54.4976054 122.957945,49.1286862 120.043003,42.6092843 C117.128062,36.0898824 108.383238,33.4054226 101.304094,36.8568708 C98.508782,38.2197296 95.0577894,41.0753072 94.6413692,44.9102496 C94.224949,48.7451919 94.2249502,54.4976055 94.2249502,54.4976055 L94.224949,71.3713517 Z M81.7021277,0 L94.0423831,0 L94.0423831,24.4265589 C94.0423831,24.4265589 90.6381747,25.5715539 86.8084403,29.3882037 C82.9787058,33.2048535 81.7021277,36.2581734 81.7021277,36.2581734 L81.7021277,0 Z" id="B"></path>
            </g>
            <g id="Code" transform="translate(263.000000, 68.000000)">
                <g id="S" transform="translate(72.000000, 24.000000)">
                    <circle id="Oval-2" fill="#1BA5B7" cx="9.5" cy="9.5" r="9.5"></circle>
                    <path d="M9.5,43 C14.7467051,43 19,38.7467051 19,33.5 C19,28.2532949 14.7467051,24 9.5,24 C4.25329488,24 0,28.2532949 0,33.5 C0,38.7467051 4.25329488,43 9.5,43 Z" id="Oval-2" fill="#FE414D"></path>
                    <circle id="Oval-2" fill="#FE414D" cx="9.5" cy="57.5" r="9.5"></circle>
                </g>
                <g id="B" transform="translate(48.000000, 0.000000)">
                    <rect id="Rectangle-2" fill="#FE414D" x="0" y="72" width="19" height="43" rx="9.5"></rect>
                    <path d="M9.5,43 C14.7467051,43 19,38.7467051 19,33.5 C19,28.2532949 14.7467051,24 9.5,24 C4.25329488,24 0,28.2532949 0,33.5 C0,38.7467051 4.25329488,43 9.5,43 Z" id="Oval-2-Copy" fill="#FE414D"></path>
                    <path d="M9.5,19 C14.7467051,19 19,14.7467051 19,9.5 C19,4.25329488 14.7467051,0 9.5,0 C4.25329488,0 0,4.25329488 0,9.5 C0,14.7467051 4.25329488,19 9.5,19 Z" id="Oval-2-Copy" fill="#1BA5B7"></path>
                    <path d="M9.5,67 C14.7467051,67 19,62.7467051 19,57.5 C19,52.2532949 14.7467051,48 9.5,48 C4.25329488,48 0,52.2532949 0,57.5 C0,62.7467051 4.25329488,67 9.5,67 Z" id="Oval-2" fill="#FE414D"></path>
                </g>
                <g id="A" transform="translate(24.000000, 24.000000)">
                    <rect id="Rectangle-2" fill="#FE414D" x="0" y="24" width="19" height="43" rx="9.5"></rect>
                    <ellipse id="Oval-2-Copy" fill="#1BA5B7" cx="9.5" cy="9.5" rx="9.5" ry="9.5"></ellipse>
                </g>
                <g id="L" transform="translate(9.500000, 57.500000) scale(1, -1) translate(-9.500000, -57.500000) ">
                    <rect id="Rectangle-2" fill="#1BA5B7" x="0" y="48" width="19" height="43" rx="9.5"></rect>
                    <path d="M9.5,43 C14.7467051,43 19,38.7467051 19,33.5 C19,28.2532949 14.7467051,24 9.5,24 C4.25329488,24 0,28.2532949 0,33.5 C0,38.7467051 4.25329488,43 9.5,43 Z" id="Oval-2-Copy" fill="#FE414D"></path>
                    <path d="M9.5,19 C14.7467051,19 19,14.7467051 19,9.5 C19,4.25329488 14.7467051,0 9.5,0 C4.25329488,0 0,4.25329488 0,9.5 C0,14.7467051 4.25329488,19 9.5,19 Z" id="Oval-2-Copy" fill="#FE414D"></path>
                    <path d="M9.5,115 C14.7467051,115 19,110.746705 19,105.5 C19,100.253295 14.7467051,96 9.5,96 C4.25329488,96 0,100.253295 0,105.5 C0,110.746705 4.25329488,115 9.5,115 Z" id="Oval-2" fill="#1BA5B7"></path>
                </g>
            </g>
        </g>
    </g>
</svg>